<svg width="56" height="56" viewBox="0 0 56 56" fill="none" xmlns="http://www.w3.org/2000/svg">
<path d="M54.9438 25.5058L30.5001 1.05583C29.8234 0.379762 28.906 0 27.9495 0C26.9929 0 26.0755 0.379762 25.3988 1.05583L20.3163 6.13458L26.7563 12.5746C30.1388 11.4321 33.3413 14.6708 32.1801 18.0346L38.3876 24.2421C42.6663 22.7671 46.0351 28.1171 42.8214 31.3283C39.5101 34.6396 34.0451 30.9696 35.8214 26.6608L30.0276 20.8746V36.1058C33.1901 37.6733 32.8101 41.3371 31.1626 42.9808C30.3577 43.7853 29.2662 44.2372 28.1282 44.2372C26.9902 44.2372 25.8988 43.7853 25.0938 42.9808C22.8976 40.7808 23.7101 37.1171 26.5001 35.9808V20.6058C23.9001 19.5421 23.4251 16.7633 24.1701 14.9808L17.8214 8.62458L1.05635 25.3921C0.379973 26.0686 0 26.9861 0 27.9427C0 28.8993 0.379973 29.8168 1.05635 30.4933L25.5076 54.9433C26.1841 55.6193 27.1013 55.9991 28.0576 55.9991C29.0139 55.9991 29.9311 55.6193 30.6076 54.9433L54.9438 30.6071C55.6202 29.9306 56.0002 29.0131 56.0002 28.0565C56.0002 27.0998 55.6202 26.1823 54.9438 25.5058V25.5058Z" fill="#44EE69"/>
</svg>
