<svg width="56" height="56" viewBox="0 0 56 56" fill="none" xmlns="http://www.w3.org/2000/svg">
<path d="M50 0H6C2.6875 0 0 2.6875 0 6V50C0 53.3125 2.6875 56 6 56H50C53.3125 56 56 53.3125 56 50V6C56 2.6875 53.3125 0 50 0ZM30.475 43.675C30.475 49.125 27.275 51.6125 22.6125 51.6125C18.4 51.6125 15.9625 49.4375 14.7125 46.8L19 44.2125C19.825 45.675 20.575 46.9125 22.3875 46.9125C24.1125 46.9125 25.2125 46.2375 25.2125 43.6V25.7125H30.475V43.675V43.675ZM42.925 51.6125C38.0375 51.6125 34.875 49.2875 33.3375 46.2375L37.625 43.7625C38.75 45.6 40.225 46.9625 42.8125 46.9625C44.9875 46.9625 46.3875 45.875 46.3875 44.3625C46.3875 42.5625 44.9625 41.925 42.55 40.8625L41.2375 40.3C37.4375 38.6875 34.925 36.65 34.925 32.3625C34.925 28.4125 37.9375 25.4125 42.625 25.4125C45.975 25.4125 48.375 26.575 50.1 29.625L46 32.25C45.1 30.6375 44.125 30 42.6125 30C41.075 30 40.1 30.975 40.1 32.25C40.1 33.825 41.075 34.4625 43.3375 35.45L44.65 36.0125C49.125 37.925 51.6375 39.8875 51.6375 44.2875C51.6375 49.0125 47.9125 51.6125 42.925 51.6125V51.6125Z" fill="#44EE69"/>
</svg>
