<svg width="64" height="57" viewBox="0 0 64 57" fill="none" xmlns="http://www.w3.org/2000/svg">
<path d="M52.275 18.1484C51.6 17.9234 50.925 17.7109 50.25 17.5109C50.3625 17.0484 50.4625 16.5859 50.5625 16.1234C52.1 8.67344 51.0875 2.68594 47.675 0.710937C44.3875 -1.17656 39.025 0.785937 33.6 5.51094C33.0625 5.97344 32.5375 6.46094 32.0375 6.94844C31.7 6.62344 31.35 6.29844 31 5.98594C25.3125 0.935937 19.6125 -1.18906 16.2 0.798437C12.925 2.69844 11.95 8.33594 13.325 15.3859C13.4625 16.0859 13.6125 16.7734 13.7875 17.4734C12.9875 17.6984 12.2 17.9484 11.4625 18.2109C4.7875 20.5234 0 24.1734 0 27.9484C0 31.8484 5.1 35.7609 12.0375 38.1359C12.6 38.3234 13.1625 38.5109 13.7375 38.6734C13.55 39.4234 13.3875 40.1609 13.2375 40.9234C11.925 47.8609 12.95 53.3609 16.225 55.2484C19.6 57.1984 25.275 55.1984 30.8 50.3609C31.2375 49.9734 31.675 49.5734 32.1125 49.1484C32.6625 49.6859 33.2375 50.1984 33.8125 50.6984C39.1625 55.2984 44.45 57.1609 47.7125 55.2734C51.0875 53.3234 52.1875 47.4109 50.7625 40.2109C50.65 39.6609 50.525 39.0984 50.3875 38.5234C50.7875 38.4109 51.175 38.2859 51.5625 38.1609C58.775 35.7734 64 31.9109 64 27.9484C64 24.1609 59.075 20.4859 52.275 18.1484V18.1484ZM35.3625 7.53594C40.0125 3.48594 44.35 1.89844 46.325 3.03594C48.4375 4.24844 49.25 9.14844 47.925 15.5859C47.8375 16.0109 47.75 16.4234 47.6375 16.8359C44.8625 16.2109 42.05 15.7609 39.225 15.5109C37.6 13.1859 35.825 10.9609 33.9 8.87344C34.3875 8.41094 34.8625 7.97344 35.3625 7.53594V7.53594ZM20.9 34.4359C21.5375 35.5234 22.1875 36.6109 22.875 37.6734C20.925 37.4609 18.9875 37.1484 17.075 36.7359C17.625 34.9359 18.3125 33.0734 19.1125 31.1734C19.6875 32.2734 20.275 33.3609 20.9 34.4359V34.4359ZM17.1125 19.3984C18.9125 18.9984 20.825 18.6734 22.8125 18.4234C22.15 19.4609 21.5 20.5234 20.8875 21.5984C20.275 22.6609 19.675 23.7484 19.1125 24.8484C18.325 22.9859 17.6625 21.1609 17.1125 19.3984ZM20.5375 28.0109C21.3625 26.2859 22.2625 24.5984 23.2125 22.9359C24.1625 21.2734 25.1875 19.6609 26.2625 18.0734C28.1375 17.9359 30.05 17.8609 32 17.8609C33.95 17.8609 35.875 17.9359 37.7375 18.0734C38.8 19.6484 39.8125 21.2609 40.775 22.9109C41.7375 24.5609 42.6375 26.2484 43.4875 27.9609C42.65 29.6859 41.75 31.3859 40.7875 33.0609C39.8375 34.7234 38.825 36.3359 37.7625 37.9359C35.9 38.0734 33.9625 38.1359 32 38.1359C30.0375 38.1359 28.1375 38.0734 26.3 37.9609C25.2125 36.3734 24.1875 34.7484 23.225 33.0859C22.2625 31.4234 21.375 29.7359 20.5375 28.0109ZM43.1125 34.4109C43.75 33.3109 44.35 32.1984 44.9375 31.0734C45.7375 32.8859 46.4375 34.7234 47.05 36.6109C45.1125 37.0484 43.15 37.3859 41.175 37.6109C41.85 36.5609 42.4875 35.4859 43.1125 34.4109ZM44.9125 24.8484C44.325 23.7484 43.725 22.6484 43.1 21.5734C42.4875 20.5109 41.85 19.4609 41.1875 18.4234C43.2 18.6734 45.125 19.0109 46.925 19.4234C46.35 21.2734 45.675 23.0734 44.9125 24.8484V24.8484ZM32.025 10.7859C33.3375 12.2109 34.575 13.7109 35.725 15.2609C33.25 15.1484 30.7625 15.1484 28.2875 15.2609C29.5125 13.6484 30.775 12.1484 32.025 10.7859ZM17.525 3.12344C19.625 1.89844 24.2875 3.64844 29.2 7.99844C29.5125 8.27344 29.825 8.57344 30.15 8.87344C28.2125 10.9609 26.425 13.1859 24.7875 15.5109C21.9625 15.7609 19.1625 16.1984 16.3875 16.8109C16.225 16.1734 16.0875 15.5234 15.95 14.8734C14.775 8.82344 15.55 4.26094 17.525 3.12344V3.12344ZM14.4625 36.0734C13.9375 35.9234 13.425 35.7609 12.9125 35.5859C10.25 34.7484 7.225 33.4234 5.0375 31.6859C3.775 30.8109 2.925 29.4609 2.6875 27.9484C2.6875 25.6609 6.6375 22.7359 12.3375 20.7484C13.05 20.4984 13.775 20.2734 14.5 20.0609C15.35 22.7734 16.375 25.4359 17.5625 28.0109C16.3625 30.6234 15.325 33.3234 14.4625 36.0734V36.0734ZM29.0375 48.3234C26.975 50.2109 24.5875 51.7109 21.9875 52.7359C20.6 53.3984 19 53.4609 17.575 52.8984C15.5875 51.7484 14.7625 47.3359 15.8875 41.3984C16.025 40.6984 16.175 39.9984 16.35 39.3109C19.15 39.9109 21.975 40.3234 24.8375 40.5359C26.4875 42.8734 28.3 45.1109 30.2375 47.2109C29.8375 47.5984 29.4375 47.9734 29.0375 48.3234ZM32.1 45.2859C30.825 43.9109 29.55 42.3859 28.3125 40.7484C29.5125 40.7984 30.75 40.8234 32 40.8234C33.2875 40.8234 34.55 40.7984 35.8 40.7359C34.65 42.3234 33.4125 43.8359 32.1 45.2859V45.2859ZM48.4375 49.0359C48.325 50.5609 47.575 51.9859 46.375 52.9484C44.3875 54.0984 40.15 52.5984 35.575 48.6734C35.05 48.2234 34.525 47.7359 33.9875 47.2359C35.9 45.1234 37.6625 42.8859 39.2625 40.5359C42.125 40.2984 44.975 39.8609 47.7875 39.2234C47.9125 39.7359 48.025 40.2484 48.125 40.7484C48.7375 43.4484 48.8375 46.2609 48.4375 49.0359V49.0359ZM50.7125 35.5984C50.3625 35.7109 50.0125 35.8234 49.65 35.9234C48.775 33.1984 47.7 30.5359 46.4625 27.9484C47.6625 25.3984 48.675 22.7734 49.525 20.0859C50.175 20.2734 50.8 20.4734 51.4 20.6734C57.225 22.6734 61.3125 25.6484 61.3125 27.9234C61.3125 30.3734 56.95 33.5359 50.7125 35.5984ZM32 33.7234C35.1625 33.7234 37.725 31.1609 37.725 27.9984C37.725 24.8359 35.1625 22.2734 32 22.2734C28.8375 22.2734 26.275 24.8359 26.275 27.9984C26.275 31.1609 28.8375 33.7234 32 33.7234Z" fill="#44EE69"/>
</svg>
