<svg width="100" height="56" viewBox="0 0 100 56" fill="none" xmlns="http://www.w3.org/2000/svg">
<path d="M67.5585 0L67.246 2.09008C66.7625 6.05112 66.9375 7.1844 68.2625 8.65438L69.5415 10.0122L68.2165 17.5922C67.425 22.1145 66.454 25.9044 65.8375 27.15C65.3085 28.2246 64.6915 29.8065 64.5585 30.6564C64.3375 31.6725 63.5875 32.6931 62.4415 33.5969C61.429 34.3346 59.4415 36.3122 58.0335 37.8998C56.9085 39.1988 56.1335 39.9955 55.7125 40.3374L54.3375 41.7326C53.984 42.4055 53.718 43.147 53.55 43.9296C53.454 44.5018 53.5085 44.8809 53.65 45.1593C53.7875 45.4261 54.025 45.6134 54.35 45.7308C54.7345 45.8469 55.1305 45.888 55.525 45.854C56.417 45.7757 57.3 45.5749 58.1585 45.2555C58.45 45.1535 58.679 45.0573 58.879 44.972C59.1875 44.4857 59.9 43.5659 61.1625 41.968C64.5125 37.7285 65.7915 35.409 64.471 36.0344C63.9835 36.259 64.204 35.6919 65.0415 34.5591C66.8085 32.3512 67.821 29.0155 69.9375 18.5543C71.6125 10.2955 71.6125 10.1779 72.846 10.1779C73.425 10.1779 75.0625 10.3061 75.0625 10.3061V0H71.304H67.5585ZM83.554 16.9186C83.2875 16.9186 82.846 17.4318 82.5835 17.9984C82.1 19.014 82.671 19.6341 89.946 25.4607C94.2665 28.9726 97.75 31.9663 97.6625 32.1959C97.575 32.3621 94.046 35.307 89.8165 38.7016C82.1415 44.8065 82.1 44.8648 82.804 46.1106C83.6875 47.5808 82.804 48.0882 92.7665 40.1129L100 34.1742V29.7051L91.929 23.3118C87.5665 19.8052 83.775 16.9774 83.554 16.9186ZM16.5333 17.544C16.3125 17.544 12.5209 20.4306 8.15835 23.8785L0 30.2715V34.7406L8.1125 41.2463C12.6125 44.8065 16.4041 47.7514 16.5791 47.7514C16.7541 47.7514 17.1083 47.2382 17.4625 46.6186C17.9916 45.5441 17.5458 45.0893 10.0958 39.0384C3 33.3243 2.25 32.5327 2.95833 31.913C3.4 31.5172 6.75 28.8552 10.3666 25.9739C18.6125 19.4684 18.1709 19.9175 17.5084 18.5597C17.2459 17.9984 16.8 17.4905 16.5375 17.544H16.5333ZM52.7165 17.6669C51.5 17.6563 48.8833 20.035 41.05 28.2406C40.7125 29.2721 40.6834 29.9829 40.8375 30.4428C40.9375 30.7584 41.1208 30.9771 41.375 31.1375C41.625 31.2979 41.95 31.3941 42.3083 31.4319C43.0208 31.5121 43.8625 31.3678 44.5416 31.1965L45 31.0631C45.1569 30.793 45.3629 30.5762 45.6 30.4319C46.0833 30.09 48.1125 27.7166 50.1415 25.1721C53.7125 20.5322 54.55 18.4367 53.096 17.7578C52.9765 17.697 52.849 17.6661 52.721 17.6669H52.7165ZM61.8665 20.8903C60.796 20.9278 58.8665 22.5207 55.5625 25.9044C53.904 27.6311 52.854 28.5614 52.2915 28.7538L50.1085 30.9669C49.2875 32.8913 49.1667 34.0831 49.3834 34.7406C49.4376 34.9029 49.5163 35.0498 49.615 35.1723C49.7137 35.2955 49.8304 35.3923 49.9584 35.4571C50.2765 35.6181 50.616 35.6996 50.9585 35.6977C51.776 35.6861 52.589 35.5335 53.375 35.2429C53.7845 35.1017 54.189 34.9382 54.5875 34.7515L54.7085 34.6874L54.929 34.5373C55.346 33.8477 56.304 32.5487 57.504 31.0522C61.296 26.3588 63.2335 23.0232 62.8375 21.7777C62.6585 21.1736 62.35 20.8689 61.8665 20.8903ZM51.7665 26.6635C51.4585 26.7063 50.7665 27.3905 49.5209 28.791C47.7209 30.8328 45.7584 32.0092 45.0792 31.4852C44.9214 31.5307 44.763 31.5737 44.6041 31.6135C43.9125 31.7899 43.05 31.9342 42.2791 31.854C41.9159 31.8258 41.56 31.7116 41.2291 31.5172C40.9171 31.3344 40.6681 31.0111 40.5291 30.6083C40.375 30.1272 40.375 29.5287 40.55 28.7641L37.8416 31.6186L31.7125 38.1243V48.6713L51.796 28.3741C51.792 28.1521 51.8145 27.9301 51.8625 27.7166C52.0165 27.0002 52.0085 26.6368 51.7665 26.6689V26.6635ZM60.4085 30.0791C60.104 30.0791 59.596 30.6301 58.7835 31.7366C57.679 33.2492 55.9415 34.7137 55.021 35.0132L54.879 35.1094C54.728 35.1896 54.575 35.2647 54.421 35.334C54.171 35.4411 53.846 35.5694 53.471 35.6977C52.721 35.9594 51.7875 36.1999 50.954 36.173C50.5615 36.1724 50.172 36.0749 49.8083 35.8843C49.4653 35.7034 49.1905 35.3583 49.0416 34.9221C48.8 34.1793 48.8958 33.1369 49.425 31.6564L31.7083 49.5584V56H39.4916L56 39.3643C56.429 38.7549 57.075 37.921 57.946 36.8786C60.279 34.1043 60.8085 33.1479 60.8085 31.7309C60.8085 30.6301 60.7125 30.074 60.4085 30.074V30.0791ZM64.3375 40.5029L62.925 42.3099C62.1335 43.2721 60.721 44.4588 59.754 44.9668L59.5625 45.0733L59.55 45.1002L59.5085 45.1535C59.471 45.1913 59.454 45.1965 59.425 45.2125C59.039 45.3998 58.647 45.566 58.25 45.7096C57.367 46.0394 56.459 46.2453 55.5415 46.3242C55.108 46.3601 54.6725 46.3113 54.25 46.1798C53.8835 46.0766 53.56 45.802 53.3415 45.4101C53.1415 45.0149 53.0835 44.4857 53.196 43.8334C53.2855 43.3689 53.418 42.9206 53.5915 42.4972L40.2709 56H57.9875L60.104 52.8889C63.0125 48.5372 64.3375 45.4261 64.3375 42.764V40.5029Z" fill="#44EE69"/>
</svg>
