<svg width="48" height="48" viewBox="0 0 48 48" fill="none" xmlns="http://www.w3.org/2000/svg">
<path d="M32 44.0018V36.2618C32.075 35.3082 31.9462 34.3494 31.622 33.4494C31.2979 32.5494 30.7859 31.7287 30.12 31.0418C36.4 30.3418 43 27.9618 43 17.0418C42.9995 14.2495 41.9254 11.5642 40 9.54183C40.9117 7.09884 40.8472 4.39853 39.82 2.00183C39.82 2.00183 37.46 1.30183 32 4.96183C27.416 3.71947 22.584 3.71947 18 4.96183C12.54 1.30183 10.18 2.00183 10.18 2.00183C9.15275 4.39853 9.08829 7.09884 10 9.54183C8.06025 11.5792 6.98505 14.2888 7 17.1018C7 27.9418 13.6 30.3218 19.88 31.1018C19.222 31.7818 18.7145 32.5926 18.3906 33.4817C18.0667 34.3707 17.9336 35.318 18 36.2618V44.0018M18 38.0018C8 41.0018 8 33.0018 4 32.0018L18 38.0018Z" stroke="#44EE69" stroke-width="2" stroke-linecap="round" stroke-linejoin="round"/>
</svg>
