<svg width="36" height="36" viewBox="0 0 36 36" fill="none" xmlns="http://www.w3.org/2000/svg">
<path d="M27 12L28.5 12C30.0913 12 32 12 34 12.0001C35.1221 12.0002 34.5 18 34.5 18C34.5 18 33.8679 21.1175 32.7426 22.2427C31.6174 23.3679 30.0913 24 28.5 24H27" stroke="#44EE69" stroke-width="2" stroke-linecap="round" stroke-linejoin="round"/>
<path d="M3 10H27V25.2308C27 27.0261 26.3679 28.7479 25.2426 30.0173C24.1174 31.2868 22.5913 32 21 32H9C7.4087 32 5.88258 31.2868 4.75736 30.0173C3.63214 28.7479 3 27.0261 3 25.2308V10Z" stroke="#44EE69" stroke-width="2" stroke-linecap="round" stroke-linejoin="round"/>
<path d="M9 1.5V6" stroke="#44EE69" stroke-width="2" stroke-linecap="round" stroke-linejoin="round"/>
<path d="M15 1.5L14.5 3L16 4.5L15 6" stroke="#44EE69" stroke-width="2" stroke-linecap="round" stroke-linejoin="round"/>
<path d="M21 1.5V6" stroke="#44EE69" stroke-width="2" stroke-linecap="round" stroke-linejoin="round"/>
</svg>
