<svg width="258" height="308" viewBox="0 0 258 308" fill="none" xmlns="http://www.w3.org/2000/svg">
<path d="M123.099 247.811V198.232H169.579C205.268 198.232 205.268 177.234 205.268 153.85H123.099V129.405C123.099 118.323 136.028 107.293 148.351 107.293H253.982C253.982 107.293 253.982 127.655 253.982 156.819C253.982 185.983 236.85 216.894 205.268 233.812C173.687 250.73 123.099 247.811 123.099 247.811ZM123.099 247.811V303.222C123.099 303.222 107.273 304.972 97.8831 303.222C88.4937 301.472 73.9244 292.723 73.9244 270.559V245.478M73.9244 245.478L75.3836 117.156C75.3836 94.3553 100.966 57.9799 136.716 57.9799H217.7C235.305 57.9799 254.671 45.9961 253.982 25.5813V4H153.148H131.482C49.3244 4 11.1799 57.9799 5.31149 113.073C-0.556881 168.167 11.7195 229.146 73.9244 245.478Z" stroke="#44EE69" stroke-width="8"/>
</svg>
