<svg width="64" height="74" viewBox="0 0 64 74" fill="none" xmlns="http://www.w3.org/2000/svg">
<path d="M30.5838 58.8892V47.3208H41.739C50.3044 47.3208 50.3044 42.4213 50.3044 36.9649H30.5838V31.2612C30.5838 28.6753 33.6866 26.1018 36.6443 26.1018H61.9957C61.9957 26.1018 61.9957 30.8529 61.9957 37.6578C61.9957 44.4627 57.884 51.6753 50.3044 55.6228C42.7249 59.5703 30.5838 58.8892 30.5838 58.8892ZM30.5838 58.8892V71.8185C30.5838 71.8185 26.7854 72.2268 24.5319 71.8185C22.2785 71.4102 18.7819 69.3688 18.7819 64.197V58.3448M18.7819 58.3448L19.1321 28.4031C19.1321 23.0829 25.2719 14.5953 33.8519 14.5953H53.288C57.5132 14.5953 62.161 11.7991 61.9957 7.03564V2H37.7955H32.5956C12.8779 2 3.72317 14.5953 2.31476 27.4504C0.906348 40.3055 3.85268 54.534 18.7819 58.3448Z" stroke="#467CFF" stroke-width="4"/>
</svg>
