<svg width="22" height="24" viewBox="0 0 22 24" fill="none" xmlns="http://www.w3.org/2000/svg">
<path d="M20.1667 0H1.83333C0.821181 0 0 1.00781 0 2.25V17.25C0 18.4922 0.821181 19.5 1.83333 19.5H9.16667L8.55556 21.75H5.80556C5.29757 21.75 4.88889 22.2516 4.88889 22.875C4.88889 23.4984 5.29757 24 5.80556 24H16.1944C16.7024 24 17.1111 23.4984 17.1111 22.875C17.1111 22.2516 16.7024 21.75 16.1944 21.75H13.4444L12.8333 19.5H20.1667C21.1788 19.5 22 18.4922 22 17.25V2.25C22 1.00781 21.1788 0 20.1667 0ZM19.5556 16.5H2.44444V3H19.5556V16.5Z" fill="white"/>
</svg>
